<?xml version="1.0" encoding="UTF-8"?>
<!DOCTYPE svg PUBLIC "-//W3C//DTD SVG 1.1//EN" "http://www.w3.org/Graphics/SVG/1.1/DTD/svg11.dtd">
<svg xmlns="http://www.w3.org/2000/svg" version="1.1" width="500px" height="500px" style="shape-rendering:geometricPrecision; text-rendering:geometricPrecision; image-rendering:optimizeQuality; fill-rule:evenodd; clip-rule:evenodd" xmlns:xlink="http://www.w3.org/1999/xlink">
<g><path style="opacity:1" fill="#000000" d="M -0.5,-0.5 C 166.167,-0.5 332.833,-0.5 499.5,-0.5C 499.5,166.167 499.5,332.833 499.5,499.5C 332.833,499.5 166.167,499.5 -0.5,499.5C -0.5,332.833 -0.5,166.167 -0.5,-0.5 Z"/></g>
<g><path style="opacity:1" fill="#0c54f6" d="M 290.5,184.5 C 289.202,183.884 288.202,183.884 287.5,184.5C 284.5,181.833 281.5,179.167 278.5,176.5C 274.231,171.733 269.231,167.9 263.5,165C 259.69,164.413 256.023,164.913 252.5,166.5C 247.833,165.167 243.167,165.167 238.5,166.5C 237.833,166.5 237.167,166.5 236.5,166.5C 236.5,164.833 236.5,163.167 236.5,161.5C 234.784,161.629 233.117,161.962 231.5,162.5C 232.234,161.292 232.567,159.959 232.5,158.5C 238.938,155.519 245.604,153.019 252.5,151C 262.45,149.558 270.616,152.724 277,160.5C 282.284,168.069 286.784,176.069 290.5,184.5 Z"/></g>
<g><path style="opacity:1" fill="#1534d1" d="M 232.5,158.5 C 232.567,159.959 232.234,161.292 231.5,162.5C 224.729,164.774 219.229,168.774 215,174.5C 214.517,175.448 214.351,176.448 214.5,177.5C 213.596,178.209 213.263,179.209 213.5,180.5C 212.766,181.878 212.099,183.378 211.5,185C 208.832,185.567 206.166,186.067 203.5,186.5C 203.5,191.167 203.5,195.833 203.5,200.5C 196.772,175.308 206.439,161.308 232.5,158.5 Z"/></g>
<g><path style="opacity:1" fill="#5b84fe" d="M 236.5,166.5 C 233.6,167.895 230.6,169.061 227.5,170C 223.966,174.868 219.799,179.034 215,182.5C 214.506,180.866 214.34,179.199 214.5,177.5C 214.351,176.448 214.517,175.448 215,174.5C 219.229,168.774 224.729,164.774 231.5,162.5C 233.117,161.962 234.784,161.629 236.5,161.5C 236.5,163.167 236.5,164.833 236.5,166.5 Z"/></g>
<g><path style="opacity:1" fill="#020003" d="M 251.5,172.5 C 253.527,172.338 255.527,172.505 257.5,173C 264,180.167 270.5,187.333 277,194.5C 277.667,196.5 277.667,198.5 277,200.5C 273.533,204.12 270.7,208.12 268.5,212.5C 264.719,216.624 261.719,221.291 259.5,226.5C 257.874,228.243 255.874,228.743 253.5,228C 244.219,223.356 234.553,219.856 224.5,217.5C 223.4,216.395 222.733,215.062 222.5,213.5C 222.76,207.828 223.093,202.161 223.5,196.5C 223.173,191.786 223.507,187.12 224.5,182.5C 232.818,177.146 241.818,173.813 251.5,172.5 Z"/></g>
<g><path style="opacity:1" fill="#924df9" d="M 252.5,166.5 C 252.5,166.833 252.5,167.167 252.5,167.5C 251.244,167.461 250.244,167.961 249.5,169C 253.33,169.276 253.996,170.442 251.5,172.5C 241.818,173.813 232.818,177.146 224.5,182.5C 223.507,187.12 223.173,191.786 223.5,196.5C 223.167,196.5 222.833,196.5 222.5,196.5C 222.665,193.482 222.498,190.482 222,187.5C 217.954,188.555 216.454,191.221 217.5,195.5C 217.672,196.492 217.338,197.158 216.5,197.5C 216.737,196.209 216.404,195.209 215.5,194.5C 215.552,192.097 215.219,189.764 214.5,187.5C 216.51,185.96 218.844,184.96 221.5,184.5C 222.298,182.922 222.798,181.256 223,179.5C 228.065,174.926 233.231,170.593 238.5,166.5C 243.167,165.167 247.833,165.167 252.5,166.5 Z"/></g>
<g><path style="opacity:1" fill="#3045fb" d="M 278.5,176.5 C 278.366,178.292 278.699,179.958 279.5,181.5C 278.25,181.423 277.417,180.756 277,179.5C 276.25,180.126 275.416,180.626 274.5,181C 275.647,182.281 275.313,182.614 273.5,182C 269.188,178.019 265.188,173.686 261.5,169C 258.649,167.711 255.649,167.211 252.5,167.5C 252.5,167.167 252.5,166.833 252.5,166.5C 256.023,164.913 259.69,164.413 263.5,165C 269.231,167.9 274.231,171.733 278.5,176.5 Z"/></g>
<g><path style="opacity:1" fill="#8172fe" d="M 236.5,166.5 C 237.167,166.5 237.833,166.5 238.5,166.5C 233.231,170.593 228.065,174.926 223,179.5C 222.798,181.256 222.298,182.922 221.5,184.5C 218.844,184.96 216.51,185.96 214.5,187.5C 213.781,185.236 213.448,182.903 213.5,180.5C 213.263,179.209 213.596,178.209 214.5,177.5C 214.34,179.199 214.506,180.866 215,182.5C 219.799,179.034 223.966,174.868 227.5,170C 230.6,169.061 233.6,167.895 236.5,166.5 Z"/></g>
<g><path style="opacity:1" fill="#6c27eb" d="M 252.5,167.5 C 255.649,167.211 258.649,167.711 261.5,169C 265.188,173.686 269.188,178.019 273.5,182C 275.313,182.614 275.647,182.281 274.5,181C 275.416,180.626 276.25,180.126 277,179.5C 277.417,180.756 278.25,181.423 279.5,181.5C 281.363,184.211 282.029,187.044 281.5,190C 283.227,192.904 283.893,196.07 283.5,199.5C 282.818,206.191 280.318,212.191 276,217.5C 274.48,216.303 273.313,214.803 272.5,213C 270.981,213.331 269.648,213.164 268.5,212.5C 270.7,208.12 273.533,204.12 277,200.5C 277.667,198.5 277.667,196.5 277,194.5C 270.5,187.333 264,180.167 257.5,173C 255.527,172.505 253.527,172.338 251.5,172.5C 253.996,170.442 253.33,169.276 249.5,169C 250.244,167.961 251.244,167.461 252.5,167.5 Z"/></g>
<g><path style="opacity:1" fill="#855dfe" d="M 278.5,176.5 C 281.5,179.167 284.5,181.833 287.5,184.5C 289.739,186.477 291.073,188.977 291.5,192C 288.564,195.628 285.897,199.461 283.5,203.5C 283.5,202.167 283.5,200.833 283.5,199.5C 283.893,196.07 283.227,192.904 281.5,190C 282.029,187.044 281.363,184.211 279.5,181.5C 278.699,179.958 278.366,178.292 278.5,176.5 Z"/></g>
<g><path style="opacity:1" fill="#733bf5" d="M 213.5,180.5 C 213.448,182.903 213.781,185.236 214.5,187.5C 215.219,189.764 215.552,192.097 215.5,194.5C 213.166,197.829 210.166,200.496 206.5,202.5C 205.95,204.657 205.283,206.657 204.5,208.5C 203.908,205.873 203.575,203.206 203.5,200.5C 203.5,195.833 203.5,191.167 203.5,186.5C 206.166,186.067 208.832,185.567 211.5,185C 212.099,183.378 212.766,181.878 213.5,180.5 Z"/></g>
<g><path style="opacity:1" fill="#ae2efb" d="M 222.5,196.5 C 222.354,200.519 222.021,204.519 221.5,208.5C 219.699,204.293 218.366,199.96 217.5,195.5C 216.454,191.221 217.954,188.555 222,187.5C 222.498,190.482 222.665,193.482 222.5,196.5 Z"/></g>
<g><path style="opacity:1" fill="#2d0c41" d="M 222.5,196.5 C 222.833,196.5 223.167,196.5 223.5,196.5C 223.093,202.161 222.76,207.828 222.5,213.5C 221.549,212.081 221.216,210.415 221.5,208.5C 222.021,204.519 222.354,200.519 222.5,196.5 Z"/></g>
<g><path style="opacity:1" fill="#ab37f4" d="M 215.5,194.5 C 216.404,195.209 216.737,196.209 216.5,197.5C 219.308,204.13 218.975,210.463 215.5,216.5C 215.608,217.442 215.941,218.275 216.5,219C 218.134,219.494 219.801,219.66 221.5,219.5C 219.354,223.395 216.021,225.561 211.5,226C 212.354,227.022 213.354,227.855 214.5,228.5C 215.043,231.745 216.043,234.745 217.5,237.5C 211.757,234.423 207.59,229.756 205,223.5C 204.501,218.511 204.334,213.511 204.5,208.5C 205.283,206.657 205.95,204.657 206.5,202.5C 210.166,200.496 213.166,197.829 215.5,194.5 Z"/></g>
<g><path style="opacity:1" fill="#bd71fc" d="M 290.5,184.5 C 296.965,190.409 299.132,197.742 297,206.5C 296.156,210.229 294.656,213.563 292.5,216.5C 288.308,215.764 284.142,216.43 280,218.5C 279.536,217.906 279.369,217.239 279.5,216.5C 281.604,212.421 282.937,208.088 283.5,203.5C 285.897,199.461 288.564,195.628 291.5,192C 291.073,188.977 289.739,186.477 287.5,184.5C 288.202,183.884 289.202,183.884 290.5,184.5 Z"/></g>
<g><path style="opacity:1" fill="#d155f9" d="M 217.5,195.5 C 218.366,199.96 219.699,204.293 221.5,208.5C 221.216,210.415 221.549,212.081 222.5,213.5C 222.733,215.062 223.4,216.395 224.5,217.5C 223.5,218.167 222.5,218.833 221.5,219.5C 219.801,219.66 218.134,219.494 216.5,219C 215.941,218.275 215.608,217.442 215.5,216.5C 218.975,210.463 219.308,204.13 216.5,197.5C 217.338,197.158 217.672,196.492 217.5,195.5 Z"/></g>
<g><path style="opacity:1" fill="#9205e5" d="M 283.5,199.5 C 283.5,200.833 283.5,202.167 283.5,203.5C 282.937,208.088 281.604,212.421 279.5,216.5C 278.073,220.687 276.073,224.687 273.5,228.5C 272.232,229.428 270.899,229.595 269.5,229C 266.715,224.917 263.381,224.084 259.5,226.5C 261.719,221.291 264.719,216.624 268.5,212.5C 269.648,213.164 270.981,213.331 272.5,213C 273.313,214.803 274.48,216.303 276,217.5C 280.318,212.191 282.818,206.191 283.5,199.5 Z"/></g>
<g><path style="opacity:1" fill="#c712f2" d="M 292.5,216.5 C 287.269,225.065 280.936,232.732 273.5,239.5C 274.439,236.197 275.439,232.864 276.5,229.5C 277.675,229.719 278.675,229.386 279.5,228.5C 278.635,227.417 277.635,227.251 276.5,228C 275.146,232.576 272.312,235.743 268,237.5C 266.056,236.312 264.556,234.646 263.5,232.5C 262.571,231.311 262.238,229.978 262.5,228.5C 258.778,229.296 255.111,230.296 251.5,231.5C 243.189,230.425 234.855,230.259 226.5,231C 231.943,235.895 237.61,240.562 243.5,245C 246.333,245.167 249.167,245.333 252,245.5C 255.364,245.405 258.531,244.738 261.5,243.5C 262.183,243.863 262.85,244.196 263.5,244.5C 247.465,247.735 232.131,245.401 217.5,237.5C 216.043,234.745 215.043,231.745 214.5,228.5C 213.354,227.855 212.354,227.022 211.5,226C 216.021,225.561 219.354,223.395 221.5,219.5C 222.5,218.833 223.5,218.167 224.5,217.5C 234.553,219.856 244.219,223.356 253.5,228C 255.874,228.743 257.874,228.243 259.5,226.5C 263.381,224.084 266.715,224.917 269.5,229C 270.899,229.595 272.232,229.428 273.5,228.5C 276.073,224.687 278.073,220.687 279.5,216.5C 279.369,217.239 279.536,217.906 280,218.5C 284.142,216.43 288.308,215.764 292.5,216.5 Z"/></g>
<g><path style="opacity:1" fill="#f100fc" d="M 273.5,239.5 C 271.008,242.675 267.674,244.341 263.5,244.5C 262.85,244.196 262.183,243.863 261.5,243.5C 258.531,244.738 255.364,245.405 252,245.5C 249.167,245.333 246.333,245.167 243.5,245C 237.61,240.562 231.943,235.895 226.5,231C 234.855,230.259 243.189,230.425 251.5,231.5C 255.111,230.296 258.778,229.296 262.5,228.5C 262.238,229.978 262.571,231.311 263.5,232.5C 264.556,234.646 266.056,236.312 268,237.5C 272.312,235.743 275.146,232.576 276.5,228C 277.635,227.251 278.635,227.417 279.5,228.5C 278.675,229.386 277.675,229.719 276.5,229.5C 275.439,232.864 274.439,236.197 273.5,239.5 Z"/></g>
<g><path style="opacity:1" fill="#3e00f0" d="M 86.5,278.5 C 89.9705,277.875 92.8038,278.875 95,281.5C 101.333,295.5 107.667,309.5 114,323.5C 114.833,328 113,329.833 108.5,329C 105.601,326.038 103.601,322.538 102.5,318.5C 94.1866,317.335 85.8533,317.168 77.5,318C 76.0226,321.955 74.0226,325.622 71.5,329C 66.5036,329.664 64.6703,327.498 66,322.5C 72.5904,307.656 79.4237,292.989 86.5,278.5 Z"/></g>
<g><path style="opacity:1" fill="#3e00f2" d="M 265.5,278.5 C 270.844,278.334 276.177,278.501 281.5,279C 284.656,279.937 287.489,281.437 290,283.5C 291.072,286.553 290.072,288.553 287,289.5C 280.003,285.141 272.837,284.641 265.5,288C 262.887,291.204 262.887,294.37 265.5,297.5C 271.849,299.172 278.182,301.005 284.5,303C 293.292,308.199 294.792,315.032 289,323.5C 282.093,329.064 274.259,330.897 265.5,329C 261.205,328.102 257.372,326.269 254,323.5C 253.333,321.833 253.333,320.167 254,318.5C 254.725,317.941 255.558,317.608 256.5,317.5C 261.543,319.898 266.876,321.231 272.5,321.5C 275.966,321.4 279.132,320.4 282,318.5C 282.769,315.901 282.602,313.401 281.5,311C 273.972,309.284 266.638,306.951 259.5,304C 253.836,298.221 253.003,291.721 257,284.5C 259.637,282.109 262.47,280.109 265.5,278.5 Z"/></g>
<g><path style="opacity:1" fill="#3e00f3" d="M 231.5,283.5 C 233.792,283.244 235.959,283.577 238,284.5C 238.498,287.482 238.665,290.482 238.5,293.5C 241.518,293.335 244.518,293.502 247.5,294C 249.602,295.733 249.935,297.733 248.5,300C 245.183,300.498 241.85,300.665 238.5,300.5C 238.228,306.714 238.562,312.881 239.5,319C 239.905,319.945 240.572,320.612 241.5,321C 244.482,321.498 247.482,321.665 250.5,321.5C 251.502,327.644 248.835,330.311 242.5,329.5C 236.299,329.317 232.132,326.317 230,320.5C 229.5,313.842 229.334,307.175 229.5,300.5C 222.81,301.669 221.143,299.503 224.5,294C 226.134,293.506 227.801,293.34 229.5,293.5C 229.034,289.838 229.701,286.505 231.5,283.5 Z"/></g>
<g><path style="opacity:1" fill="#020007" d="M 89.5,289.5 C 92.7718,295.788 95.7718,302.288 98.5,309C 92.8431,309.499 87.1764,309.666 81.5,309.5C 83.6092,302.614 86.2759,295.948 89.5,289.5 Z"/></g>
<g><path style="opacity:1" fill="#3d00ee" d="M 127.5,293.5 C 131.846,293.334 136.179,293.501 140.5,294C 145.985,294.46 147.652,297.127 145.5,302C 141.903,301.223 138.237,300.39 134.5,299.5C 130.991,299.177 128.657,300.677 127.5,304C 127.759,305.261 128.426,306.261 129.5,307C 133.896,307.746 138.23,308.746 142.5,310C 144.286,310.785 145.786,311.951 147,313.5C 149.304,322.064 146.137,327.23 137.5,329C 132.761,329.726 128.095,329.393 123.5,328C 121.334,326.998 119.667,325.498 118.5,323.5C 118.574,321.261 119.741,320.261 122,320.5C 127.011,322.38 132.177,322.88 137.5,322C 139.698,320.33 140.032,318.33 138.5,316C 133.343,315.197 128.343,313.864 123.5,312C 117.303,304.214 118.636,298.047 127.5,293.5 Z"/></g>
<g><path style="opacity:1" fill="#3e00f1" d="M 162.5,293.5 C 166.846,293.334 171.179,293.501 175.5,294C 178.115,294.795 180.115,296.295 181.5,298.5C 181.272,300.397 180.272,301.73 178.5,302.5C 175.329,300.912 171.995,299.912 168.5,299.5C 163.281,299.378 161.614,301.712 163.5,306.5C 167.061,307.761 170.728,308.594 174.5,309C 183.959,313.546 184.959,319.546 177.5,327C 169.39,330.656 161.556,330.156 154,325.5C 153.28,323.888 153.446,322.388 154.5,321C 160.36,322.319 166.36,322.653 172.5,322C 175.167,320 175.167,318 172.5,316C 168.465,315.126 164.465,314.126 160.5,313C 157.943,312.315 156.109,310.815 155,308.5C 154.333,305.5 154.333,302.5 155,299.5C 157.114,296.879 159.614,294.879 162.5,293.5 Z"/></g>
<g><path style="opacity:1" fill="#3e00f2" d="M 198.5,293.5 C 213.928,291.437 220.928,297.937 219.5,313C 211.841,313.5 204.174,313.666 196.5,313.5C 196.982,319.805 200.482,322.805 207,322.5C 210.513,322.107 213.847,321.107 217,319.5C 221.692,322.143 221.525,324.643 216.5,327C 204.009,332.344 194.509,329.177 188,317.5C 185.435,306.656 188.935,298.656 198.5,293.5 Z"/></g>
<g><path style="opacity:1" fill="#3e00f1" d="M 298.5,293.5 C 300.467,293.261 302.301,293.594 304,294.5C 307,302.167 310,309.833 313,317.5C 315.593,309.376 318.76,301.542 322.5,294C 324.441,293.257 326.274,293.424 328,294.5C 331,302.167 334,309.833 337,317.5C 339.593,309.376 342.76,301.542 346.5,294C 351.667,292.5 353.5,294.333 352,299.5C 348.333,308.833 344.667,318.167 341,327.5C 337.626,330.405 334.626,330.072 332,326.5C 329.791,320.038 327.291,313.705 324.5,307.5C 321.709,313.705 319.209,320.038 317,326.5C 315.475,329.087 313.308,329.92 310.5,329C 308.383,327.269 306.883,325.102 306,322.5C 303.277,314.722 300.277,307.055 297,299.5C 296.252,297.16 296.752,295.16 298.5,293.5 Z"/></g>
<g><path style="opacity:1" fill="#3e00f2" d="M 370.5,308.5 C 373.833,308.5 377.167,308.5 380.5,308.5C 380.784,306.585 380.451,304.919 379.5,303.5C 379.423,302.25 378.756,301.417 377.5,301C 372.336,300.09 367.336,300.59 362.5,302.5C 359.754,301.904 358.92,300.237 360,297.5C 361.8,295.683 363.966,294.516 366.5,294C 383.669,290.336 391.002,297.17 388.5,314.5C 388.333,318.833 388.167,323.167 388,327.5C 383.905,330.637 381.238,329.637 380,324.5C 372.662,331.357 365.662,331.023 359,323.5C 355.708,313.274 359.541,308.274 370.5,308.5 Z"/></g>
<g><path style="opacity:1" fill="#3e00f2" d="M 399.5,293.5 C 403.757,292.597 406.257,294.264 407,298.5C 412.779,292.836 419.279,292.003 426.5,296C 431.27,299.876 433.27,304.876 432.5,311C 432.906,324.263 426.573,330.263 413.5,329C 410.898,328.117 408.731,326.617 407,324.5C 406.667,329.833 406.333,335.167 406,340.5C 403.084,342.013 400.418,341.68 398,339.5C 397.333,324.833 397.333,310.167 398,295.5C 398.717,294.956 399.217,294.289 399.5,293.5 Z"/></g>
<g><path style="opacity:1" fill="#030008" d="M 212.5,305.5 C 210.257,306.812 207.59,307.478 204.5,307.5C 201.645,307.497 198.978,307.164 196.5,306.5C 198.959,299.565 203.626,297.731 210.5,301C 211.582,302.33 212.249,303.83 212.5,305.5 Z"/></g>
<g><path style="opacity:1" fill="#020005" d="M 411.5,300.5 C 416.635,299.426 420.468,301.093 423,305.5C 423.968,310.36 423.468,315.026 421.5,319.5C 416.59,323.817 412.09,323.483 408,318.5C 405.113,311.494 406.28,305.494 411.5,300.5 Z"/></g>
<g><path style="opacity:1" fill="#17005a" d="M 212.5,305.5 C 213.404,306.209 213.737,307.209 213.5,308.5C 207.463,308.829 201.463,308.496 195.5,307.5C 195.624,306.893 195.957,306.56 196.5,306.5C 198.978,307.164 201.645,307.497 204.5,307.5C 207.59,307.478 210.257,306.812 212.5,305.5 Z"/></g>
<g><path style="opacity:1" fill="#17025f" d="M 379.5,303.5 C 380.451,304.919 380.784,306.585 380.5,308.5C 377.167,308.5 373.833,308.5 370.5,308.5C 373.287,307.523 376.287,307.19 379.5,307.5C 379.5,306.167 379.5,304.833 379.5,303.5 Z"/></g>
<g><path style="opacity:1" fill="#030009" d="M 368.5,313.5 C 372.5,313.5 376.5,313.5 380.5,313.5C 379.418,322.524 374.918,324.857 367,320.5C 366.167,317.829 366.667,315.496 368.5,313.5 Z"/></g>
<g><path style="opacity:1" fill="#c6c6c6" d="M 275.5,352.5 C 280.159,352.015 281.492,353.848 279.5,358C 274.728,358.81 273.395,356.977 275.5,352.5 Z"/></g>
<g><path style="opacity:1" fill="#ebebeb" d="M 219.5,353.5 C 225.932,352.347 231.432,354.014 236,358.5C 239.542,369.128 235.709,374.795 224.5,375.5C 222.571,375.46 220.738,375.127 219,374.5C 218.205,367.42 218.372,360.42 219.5,353.5 Z"/></g>
<g><path style="opacity:1" fill="#efefef" d="M 257.5,353.5 C 262.762,353.195 267.928,353.529 273,354.5C 273.72,356.112 273.554,357.612 272.5,359C 268.848,359.499 265.182,359.665 261.5,359.5C 261.5,360.5 261.5,361.5 261.5,362.5C 264.167,362.5 266.833,362.5 269.5,362.5C 269.5,364.167 269.5,365.833 269.5,367.5C 266.833,367.5 264.167,367.5 261.5,367.5C 261.5,370.167 261.5,372.833 261.5,375.5C 259.833,375.5 258.167,375.5 256.5,375.5C 256.203,368.08 256.536,360.746 257.5,353.5 Z"/></g>
<g><path style="opacity:1" fill="#0d0d0d" d="M 224.5,359.5 C 231.745,359.555 233.745,362.722 230.5,369C 228.655,370.128 226.655,370.628 224.5,370.5C 224.5,366.833 224.5,363.167 224.5,359.5 Z"/></g>
<g><path style="opacity:1" fill="#efefef" d="M 244.5,359.5 C 250.679,358.858 253.846,361.525 254,367.5C 253.5,368 253,368.5 252.5,369C 249.833,369.333 247.167,369.667 244.5,370C 245.43,370.991 246.596,371.491 248,371.5C 252.307,369.549 253.807,370.715 252.5,375C 243.4,377.866 238.9,374.7 239,365.5C 240.36,362.977 242.193,360.977 244.5,359.5 Z"/></g>
<g><path style="opacity:1" fill="#e1e1e1" d="M 274.5,360.5 C 276.5,360.5 278.5,360.5 280.5,360.5C 280.666,365.179 280.499,369.845 280,374.5C 278.333,375.833 276.667,375.833 275,374.5C 274.501,369.845 274.334,365.179 274.5,360.5 Z"/></g>
<g><path style="opacity:1" fill="#272727" d="M 245.5,364.5 C 246.978,364.238 248.311,364.571 249.5,365.5C 247.926,366.631 246.259,366.798 244.5,366C 245.056,365.617 245.389,365.117 245.5,364.5 Z"/></g>
</svg>
