<?xml version="1.0" encoding="UTF-8" standalone="no"?>
<!-- Created with Inkscape (http://www.inkscape.org/) -->

<svg
   version="1.1"
   id="svg2"
   width="816"
   height="816"
   viewBox="0 0 816 816"
   sodipodi:docname="crypto-wallet-vectorportal.eps"
   xmlns:inkscape="http://www.inkscape.org/namespaces/inkscape"
   xmlns:sodipodi="http://sodipodi.sourceforge.net/DTD/sodipodi-0.dtd"
   xmlns="http://www.w3.org/2000/svg"
   xmlns:svg="http://www.w3.org/2000/svg">
  <defs
     id="defs6" />
  <sodipodi:namedview
     id="namedview4"
     pagecolor="#ffffff"
     bordercolor="#000000"
     borderopacity="0.25"
     inkscape:showpageshadow="2"
     inkscape:pageopacity="0.0"
     inkscape:pagecheckerboard="0"
     inkscape:deskcolor="#d1d1d1" />
  <g
     id="g8"
     inkscape:groupmode="layer"
     inkscape:label="ink_ext_XXXXXX"
     transform="matrix(1.3333333,0,0,-1.3333333,0,816)">
    <g
       id="g10"
       transform="scale(0.1)">
      <path
         d="M 0,0 H 6120 V 6120 H 0 Z"
         style="fill:#ffffff;fill-opacity:1;fill-rule:nonzero;stroke:none"
         id="path12" />
      <path
         d="m 2701.68,3182.95 c -32.56,-363.26 -353.43,-631.35 -716.7,-598.8 -363.26,32.56 -631.35,353.43 -598.79,716.7 32.55,363.26 353.42,631.35 716.69,598.79 363.26,-32.55 631.35,-353.42 598.8,-716.69"
         style="fill:#f9b120;fill-opacity:1;fill-rule:nonzero;stroke:none"
         id="path14" />
      <path
         d="m 1438.63,3435.32 c 74.58,233.56 279.49,404.74 522.59,436.62 l -14.63,-12.22 c -226.93,-35.79 -417.76,-195.22 -493.34,-412.18 l -14.62,-12.22 m 63.14,52.76 c 74.76,164.27 221.39,286.8 396.34,331.13 l -23.61,-19.72 c -150.59,-45.97 -277.2,-151.73 -349.19,-291.75 l -23.54,-19.66"
         style="fill:#fbc959;fill-opacity:1;fill-rule:nonzero;stroke:none"
         id="path16" />
      <path
         d="m 1441.34,3040.45 c -11.36,33.84 -19.94,68.88 -25.47,104.78 l 8.86,7.39 c 5.12,-36.09 13.37,-71.41 24.5,-105.57 l -7.89,-6.6 m 32.81,27.42 c -10.58,34.83 -18.01,70.82 -22.06,107.62 l 11.75,9.81 c 3.61,-37.13 10.76,-73.41 21.13,-108.39 l -10.82,-9.04 m 831.72,694.98 c -32.86,16.51 -67.31,29.88 -103,39.91 l 11.48,9.59 c 35.19,-10.52 69.23,-24.27 101.69,-40.99 l -10.17,-8.51 m 35.06,29.3 c -31.72,17.15 -64.92,31.56 -99.27,43.03 l 9.08,7.58 c 34.32,-11.82 67.25,-26.47 98.51,-43.66 l -8.32,-6.95"
         style="fill:#fbc959;fill-opacity:1;fill-rule:nonzero;stroke:none"
         id="path18" />
      <path
         d="m 2615.15,3126.18 c 4.2,20.82 7.3,42.06 9.24,63.7 1.69,18.84 2.47,37.63 2.37,56.3 l 50.89,42.52 c 2.49,-33.96 2.26,-68.53 -0.87,-103.52 -0.25,-2.73 -0.51,-5.44 -0.79,-8.16 l -60.84,-50.84"
         style="fill:#fcdb89;fill-opacity:1;fill-rule:nonzero;stroke:none"
         id="path20" />
      <path
         d="m 2599.46,3192.13 c -0.99,-11.05 -2.27,-21.88 -3.94,-32.67 -41.5,-279.31 -286.44,-483.97 -568.57,-475.05 -10.82,0.27 -21.8,0.95 -32.76,1.94 -74.9,6.71 -145.08,27.96 -207.91,60.69 -12.75,6.67 -25.17,13.81 -37.24,21.42 -6,3.54 -11.78,7.38 -17.56,11.31 -18.08,12.26 -35.37,25.46 -51.76,39.67 -7.84,6.73 -15.35,13.63 -22.75,20.72 -22.54,21.79 -43.32,45.35 -61.94,70.61 -41.45,56.22 -72.64,120.46 -90.65,189.44 -5.4,20.47 -9.64,41.43 -12.66,62.69 -5.99,41.8 -7.25,84.88 -3.31,128.81 27.49,306.77 298.49,533.28 605.36,505.78 43.83,-3.93 86.1,-12.84 126.07,-26.16 20.38,-6.75 40.25,-14.65 59.43,-23.59 30.85,-14.32 60.14,-31.4 87.51,-50.92 29.91,-21.36 57.56,-45.52 82.69,-72.07 21.55,-22.82 41.14,-47.36 58.57,-73.52 17.8,-26.6 33.25,-54.69 46.18,-84.06 2.85,-6.38 5.49,-12.74 8.12,-19.2 5.35,-13.23 10.15,-26.81 14.35,-40.44 21.04,-67.65 29.48,-140.49 22.77,-215.4"
         style="fill:#f9b120;fill-opacity:1;fill-rule:nonzero;stroke:none"
         id="path22" />
      <path
         d="m 1769.31,2785.39 c -33.61,20.29 -64.73,44.17 -92.86,71.04 l 178.4,149.05 c 12.73,1.02 25.53,3.99 37.99,9.09 27.6,11.3 50.56,32.34 64.27,58.83 4.33,8.35 7.97,16.76 9.78,25.7 l 89.76,74.99 c 3.54,-3.89 6.61,-8.9 9.17,-15.16 0.72,-1.75 1.34,-3.75 1.88,-5.58 4.17,-14.02 -1.2,-25.78 -2.6,-39.51 -1.45,-14.19 2.37,-27.9 7.7,-40.93 3.44,-8.39 7.68,-16.22 12.59,-23.43 l -316.08,-264.09 m 509.38,425.59 c -17.5,17.19 -39.88,29.32 -64.4,34.15 -7.99,1.57 -16.07,2.34 -24.15,2.34 -13.1,0 -26.18,-2.02 -38.77,-5.89 -14.02,-4.3 -25.95,-14.86 -39.2,-21.1 l 376.65,314.69 c 21.75,-32.85 39.61,-67.7 53.43,-103.99 l -263.56,-220.2"
         style="fill:#fbc959;fill-opacity:1;fill-rule:nonzero;stroke:none"
         id="path24" />
      <path
         d="m 1614.46,2927.01 c -41.1,55.99 -71.43,120.03 -88.24,188.91 -0.08,0.79 -0.15,1.57 -0.23,2.36 l 385.22,321.89 c -2.49,-20.7 0.11,-42.32 8.58,-62.99 7.51,-18.33 20.31,-39.44 37.91,-49.65 14.5,-8.41 32.29,-9.98 43.53,-23.68 3.26,-3.98 5.97,-8.61 7.98,-13.51 4.1,-10.01 5.17,-20.5 3.63,-30.45 l -57.91,-48.38 c -4.69,0.12 -9.32,0.81 -13.77,2.02 -29.62,7.63 -38.25,38.28 -70.43,43.68 -6.66,1.12 -13.59,1.66 -20.61,1.66 -18.28,0 -37.14,-3.66 -53.16,-10.22 -64.7,-26.5 -95.66,-100.4 -69.23,-164.93 6.31,-15.4 15.3,-28.89 26.22,-40.15 l -139.49,-116.56 m 539.8,451.06 c 10.71,30.07 11.66,65.58 -0.39,94.99 -19.03,46.47 -62.52,75.53 -109.48,78.4 l 186.23,155.62 c 64.38,-17.85 126.62,-47.64 183.47,-89.88 4.65,-3.45 9.23,-6.97 13.74,-10.54 l -273.57,-228.59"
         style="fill:#fbc959;fill-opacity:1;fill-rule:nonzero;stroke:none"
         id="path26" />
      <path
         d="m 1987.26,2712.14 c -64.4,6.87 -125.03,25.07 -180.02,52.42 l 305.94,255.65 c 21.93,-16.68 48.95,-25.92 76.78,-25.92 15.98,0 32.23,3.05 47.94,9.48 64.7,26.5 95.66,100.4 69.16,165.1 -1.35,3.29 -2.83,6.5 -4.44,9.64 l 253.34,211.69 c 18.14,-62.7 24.63,-128.89 18.62,-195.86 -1.81,-20.27 -4.75,-40.19 -8.74,-59.68 l -466.69,-389.92 -111.89,-32.6"
         style="fill:#fbc959;fill-opacity:1;fill-rule:nonzero;stroke:none"
         id="path28" />
      <path
         d="m 1525.7,3118.03 c -13.12,54.7 -17.71,112.38 -12.42,171.42 24.78,276.52 257.77,485.25 530.25,485.25 15.86,0 31.87,-0.7 47.96,-2.15 58.36,-5.23 114.45,-19.69 166.6,-42.51 l -27.47,-22.96 c -48.81,13.53 -98.88,20.2 -148.73,20.2 -170.48,0 -338.76,-77.86 -448.21,-225.19 -85.32,-114.84 -119.93,-251.75 -107.69,-383.81 l -0.29,-0.25 m 919.68,474.16 c -5.73,4.92 -11.58,9.75 -17.55,14.47 l 2.5,2.09 c 5.11,-5.4 10.13,-10.92 15.05,-16.56"
         style="fill:#f89b17;fill-opacity:1;fill-rule:nonzero;stroke:none"
         id="path30" />
      <path
         d="m 1526.22,3115.92 c -0.17,0.69 -0.35,1.42 -0.52,2.11 l 0.29,0.25 c 0.08,-0.79 0.15,-1.57 0.23,-2.36 m 901.61,490.74 c -4.51,3.57 -9.09,7.09 -13.74,10.54 -56.85,42.24 -119.09,72.03 -183.47,89.88 l 27.47,22.96 c 64.45,-28.2 122.9,-69.17 172.24,-121.29 l -2.5,-2.09"
         style="fill:#f9af38;fill-opacity:1;fill-rule:nonzero;stroke:none"
         id="path32" />
      <path
         d="m 1844.89,3005.09 c -34.17,-0.01 -67.12,13.93 -90.94,38.48 l 200.98,167.94 c 0.51,-0.02 1.02,-0.03 1.54,-0.03 7.18,0 14.47,1.34 21.48,4.21 19.27,7.9 31.91,25.05 34.89,44.2 l 141.42,118.18 c -1.13,-3.19 -2.38,-6.31 -3.73,-9.36 -7.16,-16.19 -17.84,-31.21 -32.57,-41.33 -17.05,-11.73 -38.39,-10.54 -53.49,-25.47 -16.48,-15.76 -22.57,-40.37 -13.39,-62.81 8.27,-20.16 17.47,-22.07 39.28,-23.4 0.76,-0.04 1.53,-0.07 2.28,-0.07 7.02,0 13.41,1.97 19.53,4.85 l -55.52,-46.39 c -6.97,7.65 -15.73,10.99 -25.89,10.99 -8.84,0 -18.74,-2.52 -29.45,-6.91 -14.73,-6.04 -25.44,-17.38 -31.13,-30.97 -5.01,-11.95 -1.91,-24.3 -2.05,-36.72 -0.05,-3.9 -0.49,-7.69 -1.24,-11.38 l -112.04,-93.62 c -3.33,-0.26 -6.65,-0.39 -9.96,-0.39 m 268.29,15.12 c -10.61,8.08 -20.04,17.9 -27.79,29.27 l 193.3,161.5 c 9.59,-9.43 17.71,-20.37 23.93,-32.47 l -189.44,-158.3"
         style="fill:#f89b17;fill-opacity:1;fill-rule:nonzero;stroke:none"
         id="path34" />
      <path
         d="m 1854.85,3005.48 112.04,93.62 c -1.81,-8.94 -5.45,-17.35 -9.78,-25.7 -13.71,-26.49 -36.67,-47.53 -64.27,-58.83 -12.46,-5.1 -25.26,-8.07 -37.99,-9.09 m 230.54,44 c -4.91,7.21 -9.15,15.04 -12.59,23.43 -5.33,13.03 -9.15,26.74 -7.7,40.93 1.4,13.73 6.77,25.49 2.6,39.51 -0.54,1.83 -1.16,3.83 -1.88,5.58 -2.56,6.26 -5.63,11.27 -9.17,15.16 l 55.52,46.39 c 13.25,6.24 25.18,16.8 39.2,21.1 12.59,3.87 25.67,5.89 38.77,5.89 8.08,0 16.16,-0.77 24.15,-2.34 24.52,-4.83 46.9,-16.96 64.4,-34.15 l -193.3,-161.5"
         style="fill:#f9af38;fill-opacity:1;fill-rule:nonzero;stroke:none"
         id="path36" />
      <path
         d="m 1911.21,3440.17 c 5.29,44.09 33.65,84.06 77.56,102.04 15.71,6.44 31.96,9.49 47.95,9.49 2.56,0 5.12,-0.08 7.67,-0.24 l -133.18,-111.29"
         style="fill:#f89b17;fill-opacity:1;fill-rule:nonzero;stroke:none"
         id="path38" />
      <path
         d="m 1753.95,3043.57 c -10.92,11.26 -19.91,24.75 -26.22,40.15 -26.43,64.53 4.53,138.43 69.23,164.93 16.02,6.56 34.88,10.22 53.16,10.22 7.02,0 13.95,-0.54 20.61,-1.66 32.18,-5.4 40.81,-36.05 70.43,-43.68 4.45,-1.21 9.08,-1.9 13.77,-2.02 l -200.98,-167.94 m 258.89,216.32 c 1.54,9.95 0.47,20.44 -3.63,30.45 -2.01,4.9 -4.72,9.53 -7.98,13.51 -11.24,13.7 -29.03,15.27 -43.53,23.68 -17.6,10.21 -30.4,31.32 -37.91,49.65 -8.47,20.67 -11.07,42.29 -8.58,62.99 l 133.18,111.29 c 46.96,-2.87 90.45,-31.93 109.48,-78.4 12.05,-29.41 11.1,-64.92 0.39,-94.99 l -141.42,-118.18"
         style="fill:#f9af38;fill-opacity:1;fill-rule:nonzero;stroke:none"
         id="path40" />
      <path
         d="m 2189.96,2994.29 c -27.83,0 -54.85,9.24 -76.78,25.92 l 189.44,158.3 c 1.61,-3.14 3.09,-6.35 4.44,-9.64 26.5,-64.7 -4.46,-138.6 -69.16,-165.1 -15.71,-6.43 -31.96,-9.48 -47.94,-9.48"
         style="fill:#f9af38;fill-opacity:1;fill-rule:nonzero;stroke:none"
         id="path42" />
      <path
         d="m 2043.53,3774.7 c -272.48,0 -505.47,-208.73 -530.25,-485.25 -26.22,-292.6 190.49,-551.99 483.1,-578.21 292.61,-26.26 551.98,190.51 578.2,483.1 12.71,141.74 -30.54,279.95 -121.79,389.16 -91.24,109.21 -219.56,176.35 -361.3,189.05 -16.09,1.45 -32.1,2.15 -47.96,2.15 m 0.83,-1115.61 c -17.37,0 -34.82,0.77 -52.45,2.35 -320.06,28.69 -557.12,312.42 -528.44,632.48 28.69,320.06 312.41,557.05 632.48,528.43 155.05,-13.89 295.4,-87.33 395.21,-206.79 99.81,-119.46 147.13,-270.64 133.23,-425.68 -27.1,-302.44 -282,-530.79 -580.03,-530.79"
         style="fill:#100f0d;fill-opacity:1;fill-rule:nonzero;stroke:none"
         id="path44" />
      <path
         d="m 2233.09,3024.14 c -64.7,-26.5 -138.6,4.45 -165.11,69.15 -5.33,13.02 -9.14,26.73 -7.7,40.92 1.4,13.73 6.78,25.49 2.61,39.52 -0.55,1.82 -1.16,3.82 -1.88,5.57 -12,29.28 -35.24,31.23 -64.52,19.24 -14.73,-6.04 -25.44,-17.38 -31.13,-30.97 -5,-11.95 -1.91,-24.3 -2.05,-36.72 -0.16,-13.36 -4.9,-25.27 -11.01,-37.08 -13.71,-26.48 -36.68,-47.53 -64.28,-58.83 -64.7,-26.5 -138.6,4.45 -165.1,69.15 -26.44,64.53 4.52,138.43 69.22,164.93 22.18,9.09 49.76,12.6 73.78,8.56 32.18,-5.4 40.81,-36.05 70.43,-43.68 11.74,-3.18 24.69,-2.79 36.78,2.16 29.29,12 43.26,45.37 31.27,74.65 -2.01,4.91 -4.73,9.53 -7.99,13.51 -11.24,13.7 -29.02,15.27 -43.52,23.69 -17.61,10.2 -30.41,31.31 -37.91,49.64 -26.51,64.71 4.45,138.61 68.98,165.03 64.69,26.51 138.59,-4.45 165.1,-69.15 13.32,-32.53 10.74,-72.51 -3.34,-104.35 -7.16,-16.19 -17.85,-31.21 -32.57,-41.33 -17.06,-11.73 -38.39,-10.54 -53.5,-25.46 -16.48,-15.77 -22.57,-40.38 -13.38,-62.82 8.26,-20.16 17.47,-22.07 39.27,-23.39 23.4,-1.43 39.83,19.37 61.01,25.88 20.36,6.25 41.99,7.66 62.92,3.54 41.45,-8.16 76.76,-37.16 92.77,-76.26 26.5,-64.69 -4.45,-138.6 -69.15,-165.1"
         style="fill:#ffffff;fill-opacity:1;fill-rule:nonzero;stroke:none"
         id="path46" />
      <path
         d="m 2701.68,3182.95 h 0.1 -0.1 m -658.22,694.35 c -324.96,0 -602.82,-248.93 -632.37,-578.69 -31.28,-348.95 227.18,-658.29 576.13,-689.56 349,-31.26 658.28,227.18 689.56,576.13 31.27,348.96 -227.18,658.29 -576.13,689.56 -19.19,1.72 -38.28,2.56 -57.19,2.56 m 0.97,-1320.82 c -20.42,0 -40.95,0.91 -61.68,2.77 -376.41,33.74 -655.2,367.42 -621.47,743.83 33.74,376.41 367.45,655.17 743.83,621.47 376.41,-33.74 655.2,-367.42 621.47,-743.83 -31.88,-355.68 -331.64,-624.24 -682.15,-624.24"
         style="fill:#100f0d;fill-opacity:1;fill-rule:nonzero;stroke:none"
         id="path48" />
      <path
         d="m 1808.56,2663.66 c -1.94,0 -3.9,0.37 -5.79,1.16 -172.31,72.14 -298.44,213.28 -353.54,382.23 l 24.92,20.82 c 50.41,-165.91 172.28,-305.07 340.2,-375.37 7.64,-3.2 11.24,-11.99 8.05,-19.63 -2.41,-5.75 -7.98,-9.21 -13.84,-9.21 m -383.83,488.96 c -6.72,47.26 -8.1,95.88 -3.68,145.1 4.68,52.24 15.68,102.39 32.2,149.82 l 48.52,40.54 c -27.05,-59.46 -44.69,-124.38 -50.84,-193.04 -3.63,-40.43 -3.14,-80.44 1.16,-119.55 l -27.36,-22.87 M 2540.78,3581 c -4.68,0 -9.3,2.19 -12.22,6.29 -55.99,78.44 -129.1,141.1 -212.52,184.07 l 24.89,20.79 c 82.98,-44.89 155.76,-108.57 212.04,-187.43 4.82,-6.74 3.26,-16.11 -3.49,-20.92 -2.64,-1.89 -5.68,-2.8 -8.7,-2.8 m -326.43,231.35 c -37.91,11.35 -77.17,18.96 -117.28,22.55 -18,1.62 -35.92,2.41 -53.66,2.41 -49.9,0 -98.61,-6.26 -145.3,-18.1 l 48.48,40.51 c 31.67,5 64.05,7.59 96.91,7.59 18.62,0 37.37,-0.83 56.25,-2.52 48.77,-4.38 96.34,-14.4 141.91,-29.61 l -27.31,-22.83"
         style="fill:#fef3d3;fill-opacity:1;fill-rule:nonzero;stroke:none"
         id="path50" />
      <path
         d="m 1453.25,3447.54 c 75.58,216.96 266.41,376.39 493.34,412.18 l -48.48,-40.51 c -174.95,-44.33 -321.58,-166.86 -396.34,-331.13 l -48.52,-40.54"
         style="fill:#fef7e2;fill-opacity:1;fill-rule:nonzero;stroke:none"
         id="path52" />
      <path
         d="m 1449.23,3047.05 c -11.13,34.16 -19.38,69.48 -24.5,105.57 l 27.36,22.87 c 4.05,-36.8 11.48,-72.79 22.06,-107.62 l -24.92,-20.82 m 866.81,724.31 c -32.46,16.72 -66.5,30.47 -101.69,40.99 l 27.31,22.83 c 34.35,-11.47 67.55,-25.88 99.27,-43.03 l -24.89,-20.79"
         style="fill:#fef7e2;fill-opacity:1;fill-rule:nonzero;stroke:none"
         id="path54" />
      <path
         d="m 4823.68,3963.07 c -32.56,-363.26 -353.43,-631.36 -716.69,-598.8 -363.26,32.55 -631.35,353.43 -598.8,716.69 32.55,363.26 353.43,631.35 716.69,598.8 363.26,-32.56 631.36,-353.43 598.8,-716.69"
         style="fill:#f9b120;fill-opacity:1;fill-rule:nonzero;stroke:none"
         id="path56" />
      <path
         d="m 3560.42,4215.26 c 36.17,114.1 104.06,215.75 198.13,294.35 94.08,78.6 206.19,127.34 324.9,142.64 l -14.84,-12.4 c -226.95,-35.78 -417.78,-195.2 -493.35,-412.19 l -14.84,-12.4 m 63.4,52.97 c 74.77,164.15 221.36,286.59 396.16,330.99 l -23.49,-19.63 c -150.6,-45.97 -277.2,-151.73 -349.18,-291.74 l -23.49,-19.62"
         style="fill:#fbc959;fill-opacity:1;fill-rule:nonzero;stroke:none"
         id="path58" />
      <path
         d="m 3563.05,3820.33 c -11.41,34.1 -19.89,69.17 -25.33,104.88 l 9.01,7.53 c 5.13,-36.11 13.36,-71.4 24.51,-105.58 l -8.19,-6.83 m 33.11,27.66 c -10.59,34.82 -18.02,70.81 -22.07,107.61 l 11.76,9.82 c 3.6,-37.13 10.76,-73.42 21.13,-108.39 l -10.82,-9.04 m 831.46,694.77 c -32.56,16.41 -66.96,29.89 -102.84,40.04 l 11.57,9.67 c 35.19,-10.53 69.23,-24.27 101.7,-41 l -10.43,-8.71 m 35.31,29.5 c -31.71,17.16 -64.92,31.57 -99.26,43.03 l 9.07,7.58 c 34.33,-11.81 67.25,-26.47 98.51,-43.65 l -8.32,-6.96"
         style="fill:#fbc959;fill-opacity:1;fill-rule:nonzero;stroke:none"
         id="path60" />
      <path
         d="m 4117.39,3388.49 c -2.72,0.21 -5.43,0.44 -8.16,0.68 -34.8,3.12 -68.92,8.99 -102.12,17.48 l 51,42.61 c 18.3,-3.43 36.9,-6.01 55.81,-7.71 17.61,-1.57 35.07,-2.35 52.44,-2.35 3.96,0 7.92,0.04 11.87,0.12 l -60.84,-50.83"
         style="fill:#fcdb89;fill-opacity:1;fill-rule:nonzero;stroke:none"
         id="path62" />
      <path
         d="m 4737.15,3906.3 c 4.2,20.82 7.31,42.06 9.25,63.7 1.69,18.89 2.45,37.68 2.33,56.27 l 50.92,42.54 c 2.49,-33.95 2.27,-68.52 -0.87,-103.51 -0.25,-2.73 -0.51,-5.45 -0.79,-8.16 l -60.84,-50.84"
         style="fill:#fcdb89;fill-opacity:1;fill-rule:nonzero;stroke:none"
         id="path64" />
      <path
         d="m 4721.46,3972.25 c -0.99,-11.05 -2.26,-21.88 -3.93,-32.68 -41.5,-279.31 -286.45,-483.96 -568.58,-475.04 -10.82,0.27 -21.8,0.95 -32.76,1.93 -74.89,6.71 -145.08,27.96 -207.91,60.7 -12.75,6.66 -25.16,13.8 -37.24,21.41 -6,3.55 -11.78,7.38 -17.55,11.31 -18.08,12.26 -35.37,25.46 -51.77,39.68 -7.83,6.72 -15.34,13.62 -22.75,20.71 -22.53,21.8 -43.32,45.35 -61.94,70.61 -41.44,56.23 -72.63,120.47 -90.64,189.45 -5.4,20.47 -9.65,41.43 -12.66,62.68 -6,41.81 -7.26,84.89 -3.32,128.81 27.49,306.77 298.5,533.29 605.36,505.79 43.83,-3.93 86.11,-12.84 126.08,-26.16 20.38,-6.75 40.25,-14.65 59.43,-23.6 30.84,-14.31 60.14,-31.39 87.5,-50.92 29.91,-21.35 57.57,-45.51 82.69,-72.07 21.56,-22.81 41.15,-47.35 58.58,-73.52 17.79,-26.59 33.25,-54.68 46.18,-84.06 2.84,-6.37 5.48,-12.73 8.12,-19.19 5.34,-13.24 10.14,-26.82 14.34,-40.45 21.05,-67.65 29.48,-140.49 22.77,-215.39"
         style="fill:#f9b120;fill-opacity:1;fill-rule:nonzero;stroke:none"
         id="path66" />
      <path
         d="m 3891.32,3565.51 c -33.61,20.29 -64.74,44.17 -92.87,71.04 l 220.66,184.36 66.36,-93.18 -194.15,-162.22 m 292.05,262.83 -96.92,48.83 31.95,26.69 64.97,-32.69 4.47,-2.23 177.51,92.63 -125.24,-104.64 -56.74,-28.59 m 230.26,173.56 -110.52,56.29 29.08,24.3 111,-55.89 -29.56,-24.7 m 31.4,26.24 -66.35,93.18 231.92,193.78 c 21.44,-32.46 39.4,-67.33 53.4,-104.02 l -218.97,-182.94"
         style="fill:#fbc959;fill-opacity:1;fill-rule:nonzero;stroke:none"
         id="path68" />
      <path
         d="m 3736.46,3707.12 c -41.09,55.98 -71.42,120.05 -88.24,188.91 -0.08,0.79 -0.15,1.57 -0.22,2.36 l 442.99,370.17 -172.03,-244.27 264.41,133.13 57.39,-28.9 -28.68,-23.97 -24.24,12.35 -4.47,-2.16 -244.96,-120.32 88.55,-44.55 -31.9,-26.66 -76.1,38.34 45.51,-63.9 -228.01,-190.53 m 587.55,490.96 -118.4,166.27 147.02,122.84 c 64.38,-17.84 126.61,-47.64 183.46,-89.87 4.65,-3.46 9.23,-6.97 13.74,-10.54 l -225.82,-188.7"
         style="fill:#fbc959;fill-opacity:1;fill-rule:nonzero;stroke:none"
         id="path70" />
      <path
         d="m 3647.71,3898.15 c -13.12,54.69 -17.72,112.38 -12.43,171.42 24.79,276.51 257.77,485.25 530.26,485.25 15.85,0 31.86,-0.71 47.96,-2.15 59,-5.29 114.94,-20.07 166.41,-42.68 l -27.28,-22.8 c -48.81,13.53 -98.88,20.2 -148.74,20.2 -170.48,0 -338.75,-77.85 -448.21,-225.18 -85.32,-114.85 -119.92,-251.75 -107.68,-383.82 l -0.29,-0.24 m 918.32,475.31 c -5.29,4.53 -10.69,8.97 -16.2,13.32 l 2.3,1.92 c 4.72,-4.98 9.37,-10.08 13.9,-15.24"
         style="fill:#f89b17;fill-opacity:1;fill-rule:nonzero;stroke:none"
         id="path72" />
      <path
         d="m 3648.22,3896.03 c -0.17,0.71 -0.34,1.41 -0.51,2.12 l 0.29,0.24 c 0.07,-0.79 0.14,-1.57 0.22,-2.36 m 901.61,490.75 c -4.51,3.57 -9.09,7.08 -13.74,10.54 -56.85,42.23 -119.08,72.03 -183.46,89.87 l 27.28,22.8 c 65.6,-28.83 123.93,-70.37 172.22,-121.29 l -2.3,-1.92"
         style="fill:#f9af38;fill-opacity:1;fill-rule:nonzero;stroke:none"
         id="path74" />
      <path
         d="m 4721.49,3972.23 h 0.1 -0.1 m -555.95,582.59 c -272.49,0 -505.47,-208.74 -530.26,-485.25 -26.23,-292.6 190.49,-551.99 483.1,-578.21 292.39,-26.29 551.98,190.49 578.21,483.1 26.22,292.61 -190.5,551.99 -483.09,578.21 -16.1,1.44 -32.11,2.15 -47.96,2.15 m 0.82,-1115.62 c -17.37,0 -34.83,0.78 -52.44,2.35 -320.07,28.69 -557.12,312.42 -528.44,632.48 28.69,320.07 312.34,557.02 632.48,528.44 320.06,-28.68 557.11,-312.41 528.44,-632.47 -27.11,-302.45 -282,-530.8 -580.04,-530.8"
         style="fill:#100f0d;fill-opacity:1;fill-rule:nonzero;stroke:none"
         id="path76" />
      <path
         d="m 4164.83,4657.46 c -148.49,0 -290.93,-51.48 -406.28,-147.85 -130.24,-108.82 -210.31,-261.84 -225.45,-430.88 -15.16,-169.04 36.43,-333.86 145.25,-464.1 108.81,-130.25 261.84,-210.31 430.88,-225.46 348.99,-31.32 658.28,227.18 689.55,576.13 31.28,348.95 -227.18,658.28 -576.13,689.56 -19.33,1.73 -38.64,2.6 -57.82,2.6 m 1.61,-1320.86 c -20.41,0 -40.96,0.91 -61.68,2.77 -182.34,16.34 -347.41,102.71 -464.79,243.2 -117.37,140.49 -173.02,318.28 -156.68,500.62 16.34,182.34 102.71,347.41 243.2,464.79 140.49,117.38 318.28,173.04 500.63,156.68 376.4,-33.74 655.19,-367.41 621.46,-743.83 -31.88,-355.68 -331.64,-624.23 -682.14,-624.23"
         style="fill:#100f0d;fill-opacity:1;fill-rule:nonzero;stroke:none"
         id="path78" />
      <path
         d="m 4447.77,4024.29 -4.58,2.31 1.84,1.54 2.74,-3.85 m -115.58,58.2 -91.43,46.03 83.25,69.56 54.67,-76.76 -46.49,-38.83 m -148.82,263.27 v 49.83 l 22.24,-31.24 -22.24,-18.59"
         style="fill:#f89b17;fill-opacity:1;fill-rule:nonzero;stroke:none"
         id="path80" />
      <path
         d="m 4443.19,4026.6 -111,55.89 46.49,38.83 66.35,-93.18 -1.84,-1.54"
         style="fill:#f9af38;fill-opacity:1;fill-rule:nonzero;stroke:none"
         id="path82" />
      <path
         d="m 4240.76,4128.52 -57.39,28.9 v 188.34 l 22.24,18.59 118.4,-166.27 -83.25,-69.56"
         style="fill:#f9af38;fill-opacity:1;fill-rule:nonzero;stroke:none"
         id="path84" />
      <path
         d="m 4090.99,4268.56 90.91,129.11 1.47,-2.08 v -49.83 l -92.38,-77.2"
         style="fill:#f89b17;fill-opacity:1;fill-rule:nonzero;stroke:none"
         id="path86" />
      <path
         d="m 3918.96,4024.29 172.03,244.27 92.38,77.2 v -188.34 l -264.41,-133.13"
         style="fill:#f9af38;fill-opacity:1;fill-rule:nonzero;stroke:none"
         id="path88" />
      <path
         d="m 4184.91,3588.09 -1.54,2.16 v 219.27 l 56.74,47.41 207.66,104.62 -262.86,-373.46"
         style="fill:#f89b17;fill-opacity:1;fill-rule:nonzero;stroke:none"
         id="path90" />
      <path
         d="m 4183.37,3809.52 v 18.82 l 56.74,28.59 -56.74,-47.41"
         style="fill:#f9af38;fill-opacity:1;fill-rule:nonzero;stroke:none"
         id="path92" />
      <path
         d="m 4183.37,3590.25 -97.9,137.48 97.9,81.79 v -219.27 m -164.26,230.66 -54.64,76.74 30.59,25.56 91.39,-46.04 -67.34,-56.26"
         style="fill:#f89b17;fill-opacity:1;fill-rule:nonzero;stroke:none"
         id="path94" />
      <path
         d="m 4085.47,3727.73 -66.36,93.18 67.34,56.26 96.92,-48.83 v -18.82 l -97.9,-81.79"
         style="fill:#f9af38;fill-opacity:1;fill-rule:nonzero;stroke:none"
         id="path96" />
      <path
         d="m 3964.47,3897.65 -45.51,63.9 76.1,-38.34 -30.59,-25.56"
         style="fill:#f9af38;fill-opacity:1;fill-rule:nonzero;stroke:none"
         id="path98" />
      <path
         d="m 4183.37,3958.14 v 122.42 l 28.71,23.99 91.03,-46.36 -119.74,-100.05 m 181.98,3.43 48.28,40.33 14.69,-7.48 -62.97,-32.85"
         style="fill:#f89b17;fill-opacity:1;fill-rule:nonzero;stroke:none"
         id="path100" />
      <path
         d="m 4187.84,3868.94 -4.47,2.23 v 86.97 l 119.74,100.05 110.52,-56.29 -48.28,-40.33 -177.51,-92.63"
         style="fill:#f9af38;fill-opacity:1;fill-rule:nonzero;stroke:none"
         id="path102" />
      <path
         d="m 4183.37,4080.56 v 34.18 l 4.47,2.16 24.24,-12.35 -28.71,-23.99"
         style="fill:#f9af38;fill-opacity:1;fill-rule:nonzero;stroke:none"
         id="path104" />
      <path
         d="m 4118.4,3903.86 -91.44,46.01 156.41,130.69 v -122.42 l -64.97,-54.28"
         style="fill:#f89b17;fill-opacity:1;fill-rule:nonzero;stroke:none"
         id="path106" />
      <path
         d="m 4183.37,3871.17 -64.97,32.69 64.97,54.28 v -86.97"
         style="fill:#f9af38;fill-opacity:1;fill-rule:nonzero;stroke:none"
         id="path108" />
      <path
         d="m 4026.96,3949.87 -88.55,44.55 244.96,120.32 v -34.18 l -156.41,-130.69"
         style="fill:#f9af38;fill-opacity:1;fill-rule:nonzero;stroke:none"
         id="path110" />
      <path
         d="m 3930.56,3443.77 c -1.93,0 -3.89,0.38 -5.79,1.17 -172.29,72.13 -298.43,213.29 -353.53,382.22 l 24.92,20.83 c 50.41,-165.92 172.27,-305.07 340.2,-375.37 7.64,-3.2 11.24,-11.99 8.04,-19.63 -2.41,-5.75 -7.97,-9.22 -13.84,-9.22 m -383.83,488.97 c -6.71,47.26 -8.09,95.87 -3.68,145.1 4.68,52.22 15.7,102.4 32.21,149.82 l 48.56,40.57 c -27.08,-59.46 -44.74,-124.39 -50.89,-193.07 -3.62,-40.43 -3.14,-80.45 1.16,-119.56 l -27.36,-22.86 m 1116.06,428.38 c -4.68,0 -9.29,2.18 -12.22,6.29 -55.99,78.43 -129.11,141.09 -212.52,184.06 l 24.88,20.79 c 82.98,-44.88 155.76,-108.56 212.05,-187.42 4.81,-6.74 3.25,-16.11 -3.5,-20.92 -2.63,-1.89 -5.68,-2.8 -8.69,-2.8 m -326.44,231.35 c -37.91,11.34 -77.17,18.95 -117.27,22.55 -17.93,1.6 -35.78,2.39 -53.45,2.39 -50.01,0 -98.84,-6.3 -145.65,-18.19 l 48.63,40.63 c 31.65,4.99 64,7.57 96.85,7.57 18.63,0 37.39,-0.83 56.3,-2.52 48.77,-4.37 96.34,-14.4 141.91,-29.61 l -27.32,-22.82"
         style="fill:#fef3d3;fill-opacity:1;fill-rule:nonzero;stroke:none"
         id="path112" />
      <path
         d="m 3575.26,4227.66 c 75.57,216.99 266.4,376.41 493.35,412.19 l -48.63,-40.63 c -174.8,-44.4 -321.39,-166.84 -396.16,-330.99 l -48.56,-40.57"
         style="fill:#fef7e2;fill-opacity:1;fill-rule:nonzero;stroke:none"
         id="path114" />
      <path
         d="m 3571.24,3827.16 c -11.15,34.18 -19.38,69.47 -24.51,105.58 l 27.36,22.86 c 4.05,-36.8 11.48,-72.79 22.07,-107.61 l -24.92,-20.83 m 866.81,724.31 c -32.47,16.73 -66.51,30.47 -101.7,41 l 27.32,22.82 c 34.34,-11.46 67.55,-25.87 99.26,-43.03 l -24.88,-20.79"
         style="fill:#fef7e2;fill-opacity:1;fill-rule:nonzero;stroke:none"
         id="path116" />
      <path
         d="m 4428.32,4042.64 -264.4,133.13 v 238.16 z"
         style="fill:#f5efe3;fill-opacity:1;fill-rule:nonzero;stroke:none"
         id="path118" />
      <path
         d="m 4163.92,4413.93 v -238.16 l -264.41,-133.13 262.94,373.38 1.47,-2.09"
         style="fill:#ffffff;fill-opacity:1;fill-rule:nonzero;stroke:none"
         id="path120" />
      <path
         d="m 4428.32,3979.89 -262.86,-373.45 -1.54,2.16 v 238.09 l 264.4,133.2"
         style="fill:#f5efe3;fill-opacity:1;fill-rule:nonzero;stroke:none"
         id="path122" />
      <path
         d="M 4163.92,3846.69 V 3608.6 l -264.41,371.29 z"
         style="fill:#ffffff;fill-opacity:1;fill-rule:nonzero;stroke:none"
         id="path124" />
      <path
         d="m 4408.88,4012.77 -240.48,-125.48 -4.48,2.23 v 243.57 l 4.48,2.16 240.48,-122.48"
         style="fill:#f5efe3;fill-opacity:1;fill-rule:nonzero;stroke:none"
         id="path126" />
      <path
         d="m 4163.92,4133.09 v -243.57 l -244.96,123.25 z"
         style="fill:#ffffff;fill-opacity:1;fill-rule:nonzero;stroke:none"
         id="path128" />
      <path
         d="m 3320.61,4622.47 c -32.55,-363.27 -353.43,-631.36 -716.69,-598.8 -363.26,32.56 -631.35,353.43 -598.8,716.69 32.56,363.26 353.43,631.36 716.7,598.8 363.26,-32.55 631.34,-353.43 598.79,-716.69"
         style="fill:#f9b120;fill-opacity:1;fill-rule:nonzero;stroke:none"
         id="path130" />
      <path
         d="m 2057.35,4874.66 c 36.17,114.1 104.06,215.75 198.13,294.35 94.07,78.6 206.18,127.33 324.89,142.63 l -14.67,-12.25 c -110.76,-17.3 -215.22,-64.41 -303.63,-138.27 -88.4,-73.87 -153.34,-168.3 -190.06,-274.21 l -14.66,-12.25 m 63.1,52.72 c 36.49,80.43 90.97,152.32 160.86,210.72 69.91,58.4 150.33,99.25 235.99,120.85 l -23.82,-19.9 c -150.62,-45.96 -277.27,-151.77 -349.26,-291.81 l -23.77,-19.86"
         style="fill:#fbc959;fill-opacity:1;fill-rule:nonzero;stroke:none"
         id="path132" />
      <path
         d="m 2060.28,4479.98 c -11.36,33.83 -19.94,68.87 -25.47,104.77 l 8.85,7.39 c 5.13,-36.09 13.37,-71.41 24.51,-105.57 l -7.89,-6.59 m 32.81,27.41 c -10.58,34.83 -18.01,70.82 -22.06,107.61 l 11.75,9.82 c 3.61,-37.13 10.76,-73.41 21.13,-108.39 l -10.82,-9.04 m 831.46,694.77 c -32.56,16.41 -66.96,29.89 -102.84,40.04 l 11.58,9.67 c 35.19,-10.53 69.22,-24.27 101.69,-40.99 l -10.43,-8.72 m 35.31,29.5 c -31.71,17.16 -64.92,31.57 -99.26,43.03 l 9.08,7.58 c 34.32,-11.81 67.25,-26.47 98.5,-43.65 l -8.32,-6.96"
         style="fill:#fbc959;fill-opacity:1;fill-rule:nonzero;stroke:none"
         id="path134" />
      <path
         d="m 2614.32,4047.89 c -2.72,0.21 -5.44,0.44 -8.17,0.68 -34.99,3.14 -69.05,9.06 -102.02,17.55 l 50.92,42.54 c 18.29,-3.43 36.89,-6.01 55.8,-7.7 17.62,-1.58 35.09,-2.35 52.45,-2.35 3.97,0 7.92,0.04 11.87,0.12 l -60.85,-50.84"
         style="fill:#fcdb89;fill-opacity:1;fill-rule:nonzero;stroke:none"
         id="path136" />
      <path
         d="m 3234.09,4565.71 c 4.2,20.82 7.3,42.05 9.24,63.68 1.69,18.91 2.46,37.68 2.34,56.29 l 50.91,42.54 c 2.49,-33.96 2.27,-68.52 -0.87,-103.52 -0.24,-2.72 -0.5,-5.45 -0.78,-8.16 l -60.84,-50.83"
         style="fill:#fcdb89;fill-opacity:1;fill-rule:nonzero;stroke:none"
         id="path138" />
      <path
         d="m 3218.39,4631.66 c -0.99,-11.06 -2.26,-21.89 -3.93,-32.69 -41.5,-279.31 -286.44,-483.96 -568.58,-475.04 -10.81,0.26 -21.8,0.95 -32.76,1.93 -74.89,6.71 -145.08,27.96 -207.9,60.7 -12.76,6.67 -25.17,13.81 -37.24,21.41 -6.01,3.55 -11.79,7.38 -17.56,11.31 -18.08,12.27 -35.37,25.46 -51.77,39.68 -7.83,6.73 -15.34,13.63 -22.74,20.72 -22.54,21.79 -43.32,45.35 -61.95,70.61 -41.44,56.22 -72.63,120.46 -90.64,189.45 -5.4,20.46 -9.64,41.42 -12.66,62.68 -5.99,41.8 -7.25,84.88 -3.32,128.8 27.5,306.78 298.5,533.29 605.37,505.79 43.82,-3.93 86.09,-12.84 126.06,-26.16 20.38,-6.74 40.26,-14.65 59.44,-23.6 30.84,-14.31 60.13,-31.39 87.5,-50.91 29.91,-21.36 57.57,-45.52 82.7,-72.07 21.55,-22.81 41.13,-47.36 58.57,-73.52 17.8,-26.6 33.25,-54.69 46.18,-84.06 2.85,-6.38 5.48,-12.74 8.12,-19.2 5.34,-13.23 10.15,-26.82 14.35,-40.44 21.04,-67.65 29.48,-140.5 22.76,-215.39"
         style="fill:#f9b120;fill-opacity:1;fill-rule:nonzero;stroke:none"
         id="path140" />
      <path
         d="m 2388.25,4224.91 c -33.61,20.3 -64.73,44.18 -92.86,71.04 l 166.5,139.11 v -38.41 h 131.91 l -205.55,-171.74 m 357.59,298.77 h -13.29 -96.95 l 96.95,96.96 183.1,183.1 v 10.44 l 191.88,160.32 c 21.44,-32.46 39.4,-67.33 53.4,-104.01 l -415.09,-346.81"
         style="fill:#fbc959;fill-opacity:1;fill-rule:nonzero;stroke:none"
         id="path142" />
      <path
         d="m 2663.44,4148.6 c -15.91,0 -31.98,0.71 -48.13,2.16 -67.81,6.08 -131.55,24.68 -189.13,53.32 l 199.74,166.91 v -39.94 h 106.63 v 65.6 h 183.1 v 127.03 h -107 l 366.02,305.85 c 17.96,-61.78 24.94,-127.83 18.86,-195.67 -1.82,-20.27 -4.76,-40.2 -8.75,-59.68 l -509.21,-425.45 c -4.03,-0.09 -8.08,-0.13 -12.13,-0.13"
         style="fill:#fbc959;fill-opacity:1;fill-rule:nonzero;stroke:none"
         id="path144" />
      <path
         d="m 2145.15,4555.44 c -13.5,55.31 -18.3,113.74 -12.94,173.53 24.78,276.51 257.77,485.25 530.27,485.25 15.85,0 31.86,-0.7 47.95,-2.15 141.58,-12.69 265.4,-79.97 352.52,-179.19 -9.63,8.22 -19.61,16.18 -29.93,23.84 -99.94,74.25 -216.58,110.07 -332.2,110.07 -170.48,0 -338.75,-77.85 -448.2,-225.17 -85.83,-115.54 -120.34,-253.38 -107.47,-386.18"
         style="fill:#f89b17;fill-opacity:1;fill-rule:nonzero;stroke:none"
         id="path146" />
      <path
         d="m 3218.43,4631.63 h 0.09 -0.09 m -555.95,582.59 c -272.5,0 -505.49,-208.74 -530.27,-485.25 -26.22,-292.6 190.5,-551.98 483.1,-578.21 292.72,-26.33 551.99,190.5 578.22,483.1 26.22,292.6 -190.51,551.99 -483.1,578.21 -16.09,1.45 -32.1,2.15 -47.95,2.15 m 0.82,-1115.61 c -17.36,0 -34.83,0.77 -52.45,2.35 -320.06,28.68 -557.12,312.41 -528.44,632.48 28.68,320.06 312.33,557.09 632.48,528.44 320.06,-28.69 557.11,-312.42 528.44,-632.49 -27.11,-302.44 -281.99,-530.78 -580.03,-530.78"
         style="fill:#100f0d;fill-opacity:1;fill-rule:nonzero;stroke:none"
         id="path148" />
      <path
         d="m 3320.61,4622.47 h 0.1 -0.1 m -658.85,694.39 c -148.49,0 -290.94,-51.49 -406.28,-147.85 -130.24,-108.82 -210.31,-261.84 -225.46,-430.88 -31.27,-348.95 227.18,-658.29 576.13,-689.56 169.02,-15.16 333.86,36.44 464.1,145.25 130.25,108.82 210.32,261.84 225.46,430.88 31.27,348.95 -227.18,658.29 -576.12,689.56 -19.35,1.74 -38.64,2.6 -57.83,2.6 m 2.31,-1320.89 c -20.72,0 -41.5,0.93 -62.38,2.8 -376.41,33.74 -655.2,367.41 -621.47,743.82 16.34,182.35 102.72,347.41 243.2,464.79 140.5,117.38 318.3,172.98 500.63,156.68 376.4,-33.73 655.19,-367.41 621.47,-743.82 -16.35,-182.35 -102.72,-347.41 -243.21,-464.79 -124.41,-103.94 -278.09,-159.48 -438.24,-159.48"
         style="fill:#100f0d;fill-opacity:1;fill-rule:nonzero;stroke:none"
         id="path150" />
      <path
         d="m 2625.92,4370.99 v 25.66 h -32.12 l 152.04,127.03 h 62.81 l -182.73,-152.69 m -164.03,64.07 v 90.11 l 164.03,163.96 106.63,106.63 3.95,3.95 h -3.95 -106.63 -164.03 v 127.25 h 164.03 v 73.79 h 106.63 v -73.79 h 183.1 v -112.78 l -453.76,-379.12"
         style="fill:#f89b17;fill-opacity:1;fill-rule:nonzero;stroke:none"
         id="path152" />
      <path
         d="m 2593.8,4396.65 h -131.91 v 38.41 l 453.76,379.12 v -10.44 l -183.1,-183.1 -96.95,-96.96 h 96.95 13.29 L 2593.8,4396.65"
         style="fill:#f9af38;fill-opacity:1;fill-rule:nonzero;stroke:none"
         id="path154" />
      <path
         d="m 2732.55,4331.05 h -106.63 v 39.94 l 182.73,152.69 h 107 v -127.03 h -183.1 v -65.6"
         style="fill:#f9af38;fill-opacity:1;fill-rule:nonzero;stroke:none"
         id="path156" />
      <path
         d="m 2427.49,4103.17 c -1.93,0 -3.9,0.38 -5.79,1.17 -172.31,72.14 -298.43,213.28 -353.53,382.23 l 24.92,20.82 c 50.41,-165.91 172.27,-305.07 340.2,-375.37 7.64,-3.2 11.24,-11.99 8.04,-19.63 -2.4,-5.75 -7.98,-9.22 -13.84,-9.22 m -383.83,488.97 c -6.71,47.26 -8.09,95.87 -3.68,145.1 4.63,51.68 15.46,101.84 32.03,149.67 l 48.44,40.47 c -27.3,-60.18 -44.52,-125.14 -50.59,-192.82 -3.62,-40.43 -3.14,-80.44 1.17,-119.56 l -27.37,-22.86 m 1116.06,428.38 c -4.68,0 -9.29,2.19 -12.22,6.29 -55.99,78.44 -129.1,141.1 -212.52,184.07 l 24.88,20.78 c 82.98,-44.88 155.76,-108.56 212.05,-187.42 4.82,-6.74 3.26,-16.11 -3.49,-20.92 -2.64,-1.89 -5.68,-2.8 -8.7,-2.8 m -326.43,231.35 c -37.92,11.34 -77.18,18.95 -117.28,22.55 -18.07,1.62 -36.12,2.43 -54.04,2.43 -49.22,0 -97.72,-6.06 -144.67,-17.9 l 48.4,40.44 c 31.66,4.94 63.85,7.45 96.31,7.45 18.82,0 37.72,-0.84 56.68,-2.54 48.76,-4.37 96.34,-14.39 141.91,-29.61 l -27.31,-22.82"
         style="fill:#fef3d3;fill-opacity:1;fill-rule:nonzero;stroke:none"
         id="path158" />
      <path
         d="m 2072.01,4886.91 c 36.72,105.91 101.66,200.34 190.06,274.21 88.41,73.86 192.87,120.97 303.63,138.27 l -48.4,-40.44 c -85.66,-21.6 -166.08,-62.45 -235.99,-120.85 -69.89,-58.4 -124.37,-130.29 -160.86,-210.72 l -48.44,-40.47"
         style="fill:#fef7e2;fill-opacity:1;fill-rule:nonzero;stroke:none"
         id="path160" />
      <path
         d="m 2068.17,4486.57 c -11.14,34.16 -19.38,69.48 -24.51,105.57 l 27.37,22.86 c 4.05,-36.79 11.48,-72.78 22.06,-107.61 l -24.92,-20.82 m 866.81,724.31 c -32.47,16.72 -66.5,30.46 -101.69,40.99 l 27.31,22.82 c 34.34,-11.46 67.55,-25.87 99.26,-43.03 l -24.88,-20.78"
         style="fill:#fef7e2;fill-opacity:1;fill-rule:nonzero;stroke:none"
         id="path162" />
      <path
         d="m 2889.75,4819.25 v 123.22 h -183.1 v 73.79 h -106.63 v -73.79 h -164.03 v -127.24 h 164.03 106.63 3.95 l -3.95,-3.96 -106.63,-106.62 -164.03,-163.97 v -128.51 h 164.03 v -65.6 h 106.63 v 65.6 h 183.1 v 127.03 h -183.1 -96.95 l 96.95,96.95 183.1,183.1"
         style="fill:#ffffff;fill-opacity:1;fill-rule:nonzero;stroke:none"
         id="path164" />
      <path
         d="M 4089.67,1413.11 2268.44,882.43 c -134.6,-39.739 -275.93,37.172 -315.66,171.78 l -368.63,1248.82 c -39.73,134.61 37.18,275.94 171.78,315.66 l 1821.23,530.69 c 134.61,39.73 275.94,-37.18 315.66,-171.78 l 368.63,-1248.82 c 39.73,-134.61 -37.17,-275.94 -171.78,-315.67"
         style="fill:#a43b21;fill-opacity:1;fill-rule:nonzero;stroke:none"
         id="path166" />
      <path
         d="m 4089.67,1413.11 h 0.1 -0.1 m -440.26,1721.77 c -21.78,0 -43.7,-3.14 -65.17,-9.48 L 1762.93,2594.69 c -58.61,-17.3 -107.05,-56.45 -136.3,-110.2 -29.26,-53.76 -35.82,-115.68 -18.5,-174.38 l 368.63,-1248.82 c 17.33,-58.7 56.47,-107.142 110.23,-136.392 53.75,-29.25 115.68,-35.808 174.37,-18.488 l 1821.32,530.71 c 121.09,35.75 190.55,163.42 154.8,284.58 l -368.63,1248.82 c -17.33,58.7 -56.48,107.13 -110.23,136.38 -34.08,18.55 -71.46,27.98 -109.21,27.98 M 2196.13,846.891 c -45.98,0 -91.51,11.488 -133.04,34.089 -65.49,35.641 -113.18,94.649 -134.29,166.15 l -368.62,1248.82 c -21.11,71.51 -13.1,146.95 22.53,212.44 35.63,65.49 94.64,113.17 166.15,134.28 l 1821.31,530.71 c 71.44,21.08 146.87,13.08 212.35,-22.55 65.49,-35.64 113.17,-94.65 134.28,-166.15 l 368.63,-1248.82 c 43.56,-147.62 -41.07,-303.15 -188.68,-346.72 l -0.09,-0.03 -1821.23,-530.68 c -26.12,-7.719 -52.78,-11.539 -79.3,-11.539"
         style="fill:#100f0d;fill-opacity:1;fill-rule:nonzero;stroke:none"
         id="path168" />
      <path
         d="M 3883.99,3002.52 1578.03,2328.75 c -23.55,126.41 51.88,252.72 177.9,289.93 l 1821.24,530.69 c 126.02,37.2 257.96,-27.91 306.82,-146.85"
         style="fill:#4d221e;fill-opacity:1;fill-rule:nonzero;stroke:none"
         id="path170" />
      <path
         d="m 1609.01,2363.85 c -5.06,100.06 60.55,192.85 156.83,221.28 l 1821.28,530.7 c 1.4,0.4 2.81,0.6 4.2,0.6 6.49,0 12.49,-4.25 14.4,-10.81 2.32,-7.95 -2.25,-16.28 -10.2,-18.59 L 1774.28,2556.34 c -80.74,-23.84 -136.51,-100.21 -135.53,-183.8 l -22.03,-6.44 v 0 l -7.71,-2.25"
         style="fill:#704843;fill-opacity:1;fill-rule:nonzero;stroke:none"
         id="path172" />
      <path
         d="m 1989.01,1093.07 c -6.5,0 -12.48,4.24 -14.4,10.79 l -346.66,1185.8 c -1.11,3.82 -0.67,7.93 1.25,11.42 1.91,3.49 5.14,6.08 8.96,7.19 l 1716.68,499.12 c 1.4,0.41 2.81,0.6 4.19,0.6 6.5,0 12.5,-4.26 14.41,-10.81 2.31,-7.96 -2.27,-16.28 -10.22,-18.6 L 1660.96,2283.66 2003.41,1112.28 c 2.33,-7.95 -2.24,-16.28 -10.19,-18.61 -1.4,-0.41 -2.82,-0.6 -4.21,-0.6"
         style="fill:#b75e46;fill-opacity:1;fill-rule:nonzero;stroke:none"
         id="path174" />
      <path
         d="m 4267.57,1703.06 c 23.55,-126.41 -51.88,-252.73 -177.9,-289.93 L 2268.43,882.441 c -126.02,-37.203 -257.95,27.911 -306.82,146.849 l 2305.96,673.77"
         style="fill:#4d221e;fill-opacity:1;fill-rule:nonzero;stroke:none"
         id="path176" />
      <path
         d="m 3649.64,3134.89 c -21.64,0 -43.62,-3.07 -65.39,-9.5 L 1762.93,2594.68 c -103.88,-30.67 -170.56,-128.23 -163.77,-233.71 l 17.56,5.13 v 0 l 2231.96,652.15 c -40.8,72.84 -117.41,116.64 -199.04,116.64 M 1578.03,2303.75 c -4.57,0 -9.11,1.26 -13.09,3.7 -6.02,3.7 -10.19,9.78 -11.48,16.72 -26.26,140.93 57.74,277.85 195.39,318.49 l 1821.33,530.71 c 137.57,40.61 282.46,-28.75 336.94,-161.35 2.69,-6.56 2.48,-13.95 -0.6,-20.34 -3.07,-6.39 -8.71,-11.17 -15.51,-13.16 L 1585.05,2304.76 c -2.31,-0.68 -4.66,-1.01 -7.02,-1.01"
         style="fill:#100f0d;fill-opacity:1;fill-rule:nonzero;stroke:none"
         id="path178" />
      <path
         d="m 1996.92,1013.56 c 51.62,-92.158 160.56,-137.81 264.44,-107.138 l 1821.32,530.708 c 103.87,30.66 170.55,128.24 163.77,233.71 L 1996.92,1013.56 m 198.94,-166.669 c -110.44,0 -213.38,65.828 -257.37,172.889 -2.7,6.57 -2.48,13.96 0.59,20.35 3.07,6.38 8.71,11.17 15.52,13.15 l 2305.96,673.77 c 6.77,1.99 14.07,1.01 20.1,-2.69 6.02,-3.7 10.19,-9.78 11.49,-16.72 26.26,-140.93 -57.75,-277.85 -195.4,-318.49 L 2275.43,858.441 c -26.49,-7.82 -53.24,-11.55 -79.57,-11.55"
         style="fill:#100f0d;fill-opacity:1;fill-rule:nonzero;stroke:none"
         id="path180" />
      <path
         d="m 2195.98,896.922 c -58.62,0 -114.66,22.578 -156.71,62.289 12.4,1.73 24.84,4.391 37.21,8.051 l 1088.5,314.388 c 125.11,36.93 237.78,95.77 335.06,171.1 l 746.41,218.09 c 6.78,-105.47 -59.9,-203.05 -163.77,-233.71 L 2261.36,906.422 c -21.77,-6.43 -43.74,-9.5 -65.38,-9.5"
         style="fill:#3b1d19;fill-opacity:1;fill-rule:nonzero;stroke:none"
         id="path182" />
      <path
         d="m 3589.72,1531.04 c 128.7,126.42 221.62,285.08 269.23,458.44 l 275.48,81.32 103.05,-349.1 c 0.13,-0.43 0.25,-0.85 0.37,-1.28 l -648.13,-189.38"
         style="fill:#802f1d;fill-opacity:1;fill-rule:nonzero;stroke:none"
         id="path184" />
      <path
         d="m 4237.85,1720.42 c -0.12,0.43 -0.24,0.85 -0.37,1.28 l -103.05,349.1 23.97,7.07 103.05,-349.11 c 0.14,-0.45 0.27,-0.91 0.4,-1.36 -0.43,-0.11 -0.86,-0.22 -1.29,-0.35 l -22.71,-6.63"
         style="fill:#100f0d;fill-opacity:1;fill-rule:nonzero;stroke:none"
         id="path186" />
      <path
         d="m 2196.37,871.949 c -72.73,0 -141.74,31.481 -189.48,84.883 10.72,0.09 21.54,0.879 32.38,2.379 42.05,-39.711 98.09,-62.289 156.71,-62.289 21.64,0 43.61,3.07 65.38,9.5 l 1821.32,530.708 c 103.87,30.66 170.55,128.24 163.77,233.71 l -746.41,-218.09 c 31.54,24.42 61.48,50.59 89.68,78.29 l 648.13,189.38 22.71,6.63 c 0.43,0.13 0.86,0.24 1.29,0.35 38.81,-134.16 -38.05,-274.7 -172.26,-314.31 L 2268.35,882.398 c -23.97,-7.066 -48.18,-10.449 -71.98,-10.449"
         style="fill:#100f0d;fill-opacity:1;fill-rule:nonzero;stroke:none"
         id="path188" />
      <path
         d="m 3842.41,2583.2 -103.56,350.87 129.58,37.86 c 0.14,-0.47 0.28,-0.94 0.42,-1.41 l 103.05,-349.1 -129.49,-38.22"
         style="fill:#802f1d;fill-opacity:1;fill-rule:nonzero;stroke:none"
         id="path190" />
      <path
         d="m 3971.9,2621.42 -103.05,349.1 c -0.14,0.47 -0.28,0.94 -0.42,1.41 l 22.58,6.59 c 0.47,0.14 0.94,0.29 1.4,0.46 0.14,-0.46 0.27,-0.93 0.41,-1.39 l 103.05,-349.09 -23.97,-7.08"
         style="fill:#100f0d;fill-opacity:1;fill-rule:nonzero;stroke:none"
         id="path192" />
      <path
         d="m 3724.69,2982.02 -23.73,80.42 c -7.77,26.3 -19.38,50.37 -34.06,71.79 75.04,-5.69 143.87,-48.3 181.78,-115.98 l -123.99,-36.23"
         style="fill:#3b1d19;fill-opacity:1;fill-rule:nonzero;stroke:none"
         id="path194" />
      <path
         d="m 3738.85,2934.07 -14.16,47.95 123.99,36.23 c -37.91,67.68 -106.74,110.29 -181.78,115.98 -6.15,8.97 -12.83,17.48 -20,25.49 0.81,0.01 1.62,0.01 2.42,0.01 109.24,0 210,-70.91 243.09,-180.75 -0.46,-0.17 -0.93,-0.32 -1.4,-0.46 l -22.58,-6.59 -129.58,-37.86"
         style="fill:#100f0d;fill-opacity:1;fill-rule:nonzero;stroke:none"
         id="path196" />
      <path
         d="m 4189.07,2112.99 -373.71,-110.31 c -138.81,-40.97 -284.55,38.34 -325.53,177.15 -40.97,138.81 38.34,284.56 177.15,325.52 l 373.71,110.31 c 38.98,11.52 79.91,-10.76 91.41,-49.73 l 106.72,-361.54 c 11.5,-38.97 -10.77,-79.89 -49.75,-91.4"
         style="fill:#4d221e;fill-opacity:1;fill-rule:nonzero;stroke:none"
         id="path198" />
      <path
         d="m 3741.32,2016.94 c -26.31,0 -52.11,4.42 -76.45,12.74 19.34,1.2 38.84,4.58 58.2,10.29 l 167.84,49.54 c 152.68,45.07 239.95,205.44 194.88,358.13 l -42.16,142.83 4.14,1.22 c 4.56,1.35 9.21,2.01 13.83,2.01 8,0 15.92,-2 23.15,-5.93 11.4,-6.21 19.7,-16.47 23.37,-28.92 l 106.72,-361.53 c 7.58,-25.69 -7.16,-52.77 -32.85,-60.36 l -373.71,-110.31 c -22.3,-6.58 -44.8,-9.72 -66.96,-9.71"
         style="fill:#3b1d19;fill-opacity:1;fill-rule:nonzero;stroke:none"
         id="path200" />
      <path
         d="m 4189.07,2112.99 h 0.1 -0.1 M 4061.6,2593.7 c -4.62,0 -9.27,-0.66 -13.83,-2.01 l -373.71,-110.31 c -60.73,-17.93 -110.85,-58.43 -141.11,-114.05 -30.27,-55.62 -37.06,-119.69 -19.14,-180.43 37.01,-125.36 169.16,-197.23 294.47,-160.25 l 373.71,110.31 c 25.69,7.59 40.43,34.67 32.85,60.36 l -106.72,361.53 c -3.67,12.45 -11.97,22.71 -23.37,28.92 -7.23,3.93 -15.15,5.93 -23.15,5.93 m -320.29,-626.78 c -123.98,0 -238.62,81.03 -275.45,205.82 -21.71,73.55 -13.48,151.15 23.17,218.49 36.65,67.35 97.34,116.4 170.87,138.1 l 373.71,110.31 c 25.27,7.47 51.91,4.63 75.04,-7.95 23.13,-12.59 39.97,-33.43 47.42,-58.68 l 106.72,-361.54 c 15.39,-52.12 -14.51,-107.06 -66.64,-122.46 L 3822.44,1978.7 c -27.01,-7.98 -54.3,-11.78 -81.13,-11.78"
         style="fill:#100f0d;fill-opacity:1;fill-rule:nonzero;stroke:none"
         id="path202" />
      <path
         d="m 3537.78,2178.98 c -6.47,0 -12.45,4.23 -14.37,10.76 -17.15,58.08 -10.61,119.44 18.42,172.76 29.01,53.33 76.98,92.14 135.07,109.29 l 334.6,98.77 c 1.42,0.42 2.86,0.62 4.26,0.62 6.48,0 12.45,-4.24 14.38,-10.76 2.34,-7.95 -2.2,-16.29 -10.14,-18.63 l -334.61,-98.77 c -104.22,-30.76 -163.97,-140.58 -133.21,-244.79 2.34,-7.95 -2.2,-16.29 -10.14,-18.63 -1.42,-0.42 -2.85,-0.62 -4.26,-0.62"
         style="fill:#947672;fill-opacity:1;fill-rule:nonzero;stroke:none"
         id="path204" />
      <path
         d="m 3826.72,2279.27 c 18.09,-61.3 -16.94,-125.67 -78.23,-143.76 -61.3,-18.1 -125.67,16.93 -143.76,78.23 -18.1,61.3 16.93,125.66 78.23,143.76 61.3,18.1 125.66,-16.93 143.76,-78.23"
         style="fill:#bebdbb;fill-opacity:1;fill-rule:nonzero;stroke:none"
         id="path206" />
      <path
         d="m 3715.5,2170.64 c -5.96,0 -11.84,0.71 -17.53,2.07 -11.89,2.84 -11.77,19.58 -0.1,23.18 l 0.88,0.27 c 38.09,12.24 60.58,53.51 50.2,92.13 l -0.29,1.04 c -2.43,8.56 4.37,15.76 11.65,15.76 2.7,0 5.47,-0.99 7.85,-3.27 12.02,-11.47 20.46,-27.08 22.91,-45.49 4.26,-32.03 -13.1,-64.07 -42.24,-78.02 -10.94,-5.24 -22.28,-7.67 -33.33,-7.67"
         style="fill:#a0a09f;fill-opacity:1;fill-rule:nonzero;stroke:none"
         id="path208" />
      <path
         d="m 3715.85,2337.28 c -8.63,0 -17.31,-1.24 -25.81,-3.75 -23.24,-6.87 -42.42,-22.37 -54.01,-43.66 -11.59,-21.29 -14.18,-45.81 -7.33,-69.05 6.87,-23.24 22.36,-42.42 43.65,-54.01 21.29,-11.59 45.83,-14.17 69.06,-7.33 23.24,6.87 42.42,22.37 54.01,43.66 11.58,21.28 14.18,45.8 7.32,69.05 -6.86,23.24 -22.36,42.42 -43.65,54.01 -13.5,7.34 -28.3,11.08 -43.24,11.08 m -0.32,-231.58 c -23.19,0 -46.14,5.79 -67.07,17.19 -33.02,17.97 -57.06,47.73 -67.71,83.77 -10.64,36.06 -6.61,74.09 11.36,107.11 17.97,33.02 47.72,57.06 83.77,67.7 36.03,10.65 74.07,6.63 107.11,-11.35 33.02,-17.97 57.06,-47.73 67.7,-83.77 10.65,-36.06 6.61,-74.09 -11.35,-107.11 -17.97,-33.02 -47.73,-57.06 -83.77,-67.71 -13.2,-3.89 -26.65,-5.83 -40.04,-5.83"
         style="fill:#100f0d;fill-opacity:1;fill-rule:nonzero;stroke:none"
         id="path210" />
      <path
         d="m 3671.47,2205.56 c -5.16,0 -10.12,1.17 -14.62,3.62 -19.92,10.84 -23.47,42.76 -7.94,71.31 12.02,22.08 31.94,35.67 49.57,35.67 5.15,0 10.11,-1.16 14.62,-3.61 19.92,-10.84 23.47,-42.78 7.94,-71.31 -12.02,-22.08 -31.94,-35.68 -49.57,-35.68"
         style="fill:#efefee;fill-opacity:1;fill-rule:nonzero;stroke:none"
         id="path212" />
      <path
         d="m 3104.93,619.41 c -950.71,0 -1721.42,26 -1721.42,58.059 0,32.07 770.71,58.07 1721.42,58.07 950.72,0 1721.43,-26 1721.43,-58.07 0,-32.059 -770.71,-58.059 -1721.43,-58.059"
         style="fill:#d8d7d5;fill-opacity:1;fill-rule:nonzero;stroke:none"
         id="path214" />
    </g>
  </g>
</svg>
